<svg width="16" height="16" version="1.1" xmlns="http://www.w3.org/2000/svg">
	<path d="m8 0-1.38 4.46-0.374 1.21-0.0944 0.306-0.055 0.122-0.131 0.0139h-5.96v0.0085l4.37 3.34 0.575 0.433-0.324 1.04-1.25 4.06-0.307 1 0.421-0.312 4.4-3.36 0.113-0.0688 0.113 0.064 4.83 3.69-0.173-0.57-0.31-1-0.882-2.86-0.372-1.2-0.0999-0.323-0.0316-0.14 0.0802-0.0825 3.58-2.73 1.27-0.969v-0.0085h-5.98l-0.122-0.0185-0.0558-0.135-0.0946-0.306-0.362-1.17-0.906-2.93-0.313-1.01-0.17-0.536m0.0081 4.22 0.583 1.89h-1.17l0.358-1.17 0.149-0.485 0.0836-0.238m-2.3 3.19-0.356 1.17-0.34-0.251-1-0.767-0.186-0.156h1.89m3.29 0c0.118 0.468 0.286 0.926 0.427 1.39 0.0388 0.128 0.0783 0.256 0.118 0.383 0.0175 0.0553 0.0546 0.127 0.0519 0.186-0.0035 0.0729-0.134 0.138-0.184 0.176-0.194 0.149-0.389 0.296-0.583 0.445l-0.583 0.445c-0.0604 0.0462-0.158 0.156-0.235 0.163-0.0391 0.0035-0.0759-0.0339-0.105-0.0562-0.0784-0.0596-0.157-0.119-0.235-0.179-0.302-0.231-0.603-0.463-0.906-0.692-0.0866-0.0654-0.173-0.131-0.259-0.197-0.0312-0.024-0.079-0.0514-0.0863-0.0953-0.0072-0.0429 0.0172-0.0953 0.0297-0.135 0.0303-0.0963 0.0609-0.193 0.0895-0.289 0.109-0.367 0.224-0.733 0.339-1.1 0.035-0.11 0.0674-0.222 0.103-0.332 0.013-0.0409 0.0225-0.0977 0.0694-0.108 0.194-0.0412 0.431-0.0029 0.629-0.0029h1.32m3.19 0c-0.161 0.185-0.406 0.322-0.599 0.47-0.305 0.233-0.604 0.508-0.931 0.705l-0.356-1.17h1.89m-6.18 3.29c0.302 0.245 0.615 0.502 0.939 0.715-0.161 0.185-0.406 0.322-0.599 0.47-0.304 0.233-0.604 0.508-0.931 0.705 0.0775-0.403 0.248-0.799 0.364-1.19 0.0454-0.154 0.0926-0.307 0.141-0.46 0.0248-0.0785 0.0423-0.169 0.0863-0.238m4 0 0.256 0.826 0.326 1.06-0.453-0.339-1.08-0.819v-0.017z" style="fill:#016133"/>
</svg>
